<svg id="Warstwa_1" xmlns="http://www.w3.org/2000/svg" viewBox="0 0 57.4 58"><style>.st0{fill:#fff}</style><path class="st0" d="M49 8.5C37.8-2.8 19.6-2.8 8.4 8.5s-11.2 29.7 0 41c5.6 5.7 13 8.5 20.3 8.5 7.4 0 14.7-2.8 20.3-8.5 11.2-11.3 11.2-29.7 0-41zM8.5 46.7c-8.7-10.1-8.7-25.3 0-35.5v35.5zm1.9 2.1V12.5L27.7 30v19.1h1.9V32l17 17.2c-10.2 9.3-26.1 9.2-36.2-.4zm36.6-2L30 29.7l17-17.1v34.2zM29.7 27.3V9.5h-1.9v17.8L10.1 9.5c5.2-5 11.9-7.6 18.6-7.6s13.4 2.5 18.6 7.6L29.7 27.3zm19.2 19.4V11.3c8.8 10.1 8.8 25.3 0 35.4z"/></svg>