<svg xmlns="http://www.w3.org/2000/svg" viewBox="0 0 2290 394"><path d="M1645.5 72.3h21c19.4 0 26.2-8.4 26.2-22.4V36.6c0-13.8-6.8-22.2-26.2-22.2h-32.7v90.3h11.7V72.3zm0-47.5h20.6c11.1 0 14.9 3 14.9 11.9V50c0 8.8-3.8 11.9-14.9 11.9h-20.6V24.8zm76.2-10.5H1710v90.3h11.7V14.3zm77.1 79.9h-41.6V63.5h38.5V53.1h-38.5V24.8h41.5V14.3h-53.2v90.3h53.3V94.2zm48.8 11.8c6.8 0 16.3-.9 22.8-2.4l-1.2-10c-6.9 1.2-15.7 1.9-21.1 1.9-14.8 0-19.7-4.1-19.7-16.7V40.2c0-12.6 4.9-16.7 19.7-16.7 5.4 0 14.2.7 21.1 1.9l1.2-10c-6.5-1.5-16-2.4-22.8-2.4-22.1 0-30.9 9.5-30.9 26.6v39.9c0 17 8.8 26.5 30.9 26.5zm99.4-11.4h-47.6l46.7-70.2v-10h-58.6v10h45.7l-46.5 70.2v10h60.4v-10zm51 11.4c23.3 0 32.7-12.3 32.7-27.4V40.3c0-15.1-9.4-27.4-32.7-27.4-23.3 0-32.7 12.3-32.7 27.4v38.2c0 15.1 9.4 27.5 32.7 27.5zm-21-65.4c0-11.1 6.8-17.4 21-17.4s21 6.2 21 17.4v37.7c0 11.1-6.8 17.4-21 17.4s-21-6.2-21-17.4V40.6zm85.8-12.9l39.3 76.9h16V14.3H2107v77.3l-39.3-77.3h-16v90.3h11.1V27.7zm78.4 76.9h11.7V14.3h-11.7v90.3zm60.8-90.3h-13.7l-32.5 44.3 35 46h14l-35.8-46 33-44.3zm57.5 0h-15.7l-30.5 90.3h11.8l7.3-21.7h38.4l7.5 21.7h11.8l-30.6-90.3zm-24 58.5l16.1-50 16.1 50h-32.2zm-546.3 157.3l-39.3-77.3h-16v90.3h11.1v-76.9l39.3 76.9h16v-90.3h-11.1v77.3zm97.5-13v-38.2c0-15.1-9.4-27.4-32.7-27.4-23.3 0-32.7 12.3-32.7 27.4v38.2c0 15.1 9.4 27.4 32.7 27.4 23.4 0 32.7-12.3 32.7-27.4zm-53.7-.3v-37.7c0-11.1 6.8-17.4 21-17.4s21 6.2 21 17.4v37.7c0 11.1-6.8 17.4-21 17.4s-21-6.2-21-17.4zm183.6-64h-11.4l-20.6 79.2-18.7-79.2h-16.3l-18.7 79.2-20.6-79.2h-11.4l23.7 90.3h16.4l18.7-80.7 18.7 80.7h16.4l23.8-90.3zm18.3 90.4l7.3-21.7h38.4l7.5 21.7h11.8l-30.5-90.3h-15.7l-30.5 90.3h11.7zm26.6-81.9l16.1 50h-32.3l16.2-50zm104.2 70.7c-6.9 1.2-15.7 1.9-21.2 1.9-14.8 0-19.7-4.1-19.7-16.7v-38.5c0-12.6 4.9-16.7 19.7-16.7 5.4 0 14.2.7 21.2 1.9l1.2-10c-6.5-1.5-16-2.4-22.8-2.4-22.1 0-30.9 9.5-30.9 26.6V218c0 17.1 8.8 26.6 30.9 26.6 6.8 0 16.3-1 22.8-2.4l-1.2-10.2zm31.2 11.2v-90.3h-11.7v90.3h11.7zm16-46l33.1-44.3h-13.7l-32.6 44.3 35 46h14l-35.8-46zm52.7-44.4v90.3h11.7v-90.3h-11.7zm-499.1 138.6h-32.7v90.3h11.7v-32.3h21c19.4 0 26.2-8.4 26.2-22.4v-13.4c0-13.8-6.8-22.2-26.2-22.2zm14.6 35.6c0 8.8-3.8 11.9-14.9 11.9h-20.6v-37.2h20.6c11.1 0 14.9 3 14.9 11.9V327zm29 54.7h11.7v-90.3h-11.7v90.3zm47-41.1h38.5v-10.4h-38.5v-28.3h41.5v-10.4h-53.2v90.3h53.3v-10.4h-41.6v-30.8zm52.8-38.8h27v79.9h11.7v-79.9h27v-10.4H1810v10.4zm140.5 24.8v-13c0-13.8-6.8-22.2-26.2-22.2h-34.4v90.3h11.7V349h22.1l22.5 32.7h13.4l-23.5-34c10.5-3 14.4-10.3 14.4-21.1zm-49 12.1v-36.9h22.4c11.1 0 14.9 3 14.9 11.9v13c0 8.8-3.8 11.9-14.9 11.9h-22.4zm131.5-37.3v-10h-58.6v10h45.7l-46.5 70.3v10h60.4v-10h-47.6l46.6-70.3zm44-10l-30.5 90.3h11.8l7.3-21.7h38.4l7.5 21.7h11.8l-30.5-90.3h-15.8zm-8.2 58.4l16.1-50 16.1 50h-32.2zm130.6-58.4h-13.7l-32.5 44.3 35 46h14l-35.8-46 33-44.3zm-60.8 90.3h11.7v-90.3h-11.7v90.3zM145.7 94.5h32.4V78.8H94.9v15.7h31.3v220.7h52.2v-15.7h-32.7v-205zm27.5 94.7L269 94.5h25.4V78.8H262L148.2 190.9 260 315.2h39.4v-15.7H274L173.2 189.2zm696.9 125.9h49.8v-15.7h-33.4V100l142.4 218.2h18.5V94.5h30.6V78.8h-47v210.6L894.2 78.8h-55.7v15.7h31.7v220.6zM0 394h1535.6V0H0v394zM13.3 13.3h367.3v65.5h13.3V13.3h367.3v65.5h13.3V13.3h367.3v65.5h13.3V13.3h367.3v367.4H1155v-65.5h-13.3v65.5H774.5v-65.5h-13.3v65.5H393.9v-65.5h-13.3v65.5H13.3V13.3zm1286.2 204.5h54c22.8 0 41-6.3 54.7-18.8 13.7-12.5 20.6-29.4 20.6-50.5 0-22.1-7-39.2-20.9-51.5-13.9-12.1-33.2-18.1-57.8-18.1h-101.4v15.7h31.3v205.1h-31.3v15.7h50.9v-97.6zm0-123.3h47c21.6 0 37.5 4.4 47.7 13.2 10 8.6 15 22.9 15 42.8 0 17-5.5 29.8-16.4 38.7-10.7 8.6-26.1 12.9-46.3 12.9h-47V94.5zm-761 123.3h54c22.8 0 41-6.3 54.7-18.8 13.7-12.5 20.6-29.4 20.6-50.5 0-22.1-7-39.2-20.9-51.5-13.9-12.1-33.2-18.1-57.8-18.1H487.6v15.7H519v205.1h-31.4v15.7h50.9v-97.6zm0-123.3h47c21.6 0 37.5 4.4 47.7 13.2 10 8.6 15 22.9 15 42.8 0 17-5.5 29.8-16.4 38.7-10.7 8.6-26.1 12.9-46.3 12.9h-47V94.5z"/></svg>