<?xml version="1.0" encoding="utf-8"?>
<!-- Generator: Adobe Illustrator 22.0.1, SVG Export Plug-In . SVG Version: 6.00 Build 0)  -->
<svg version="1.1" id="Warstwa_1" xmlns="http://www.w3.org/2000/svg" xmlns:xlink="http://www.w3.org/1999/xlink" x="0px" y="0px"
	 viewBox="0 0 38 37" style="enable-background:new 0 0 38 37;" xml:space="preserve">
<path d="M37.5,19.4l0.5-0.5l-0.5-0.5c-0.2-0.2-4.1-3.8-9.1-3.9c1.2-0.5,2.5-1.3,3.5-2.3c3.6-3.6,3.8-9,3.8-9.2l0-0.7l-0.7,0
	c-0.2,0-5.8,0.2-9.4,3.8c-1.1,1-1.8,2.3-2.4,3.5c-0.1-4.9-3.8-8.8-3.9-8.9L18.7,0l-0.5,0.5c-0.2,0.2-4,4.2-4,9.2c0,0,0,0.1,0,0.1
	c-0.9-1.5-1.8-2.5-1.9-2.6l-0.5-0.5l-0.5,0.5c-0.2,0.2-4,4.2-4,9.2c0,0.2,0,0.5,0,0.7c-1-1.8-2.1-2.9-2.1-3l-0.5-0.5l-0.5,0.5
	c-0.2,0.2-4,4.2-4,9.2c0,4,2.4,7.4,3.5,8.6c-1.9,2-3.4,3.6-3.8,4.3L1.2,37c0.4-0.7,1.7-2.2,3.6-4L4.8,33l0,0
	c0.4,0.3,4.3,3.8,9.3,3.8c5.1,0,9.2-3.7,9.4-3.9l0.5-0.5L23.5,32c-0.1-0.1-1.2-1.1-3-2.1c0.2,0,0.4,0,0.7,0c5.1,0,9.2-3.7,9.4-3.9
	l0.5-0.5l-0.5-0.5c-0.1-0.1-1.1-1-2.6-1.9c0,0,0.1,0,0.1,0C33.2,23.2,37.3,19.5,37.5,19.4z M26.5,6.9c2.5-2.4,6.2-3.1,7.7-3.3
	c-0.2,1.5-0.9,5.1-3.4,7.6c-2.5,2.4-6.2,3.1-7.7,3.3C23.3,13,24,9.4,26.5,6.9z M18.7,2c1,1.2,3.1,4.2,3.1,7.7c0,3.5-2.1,6.5-3.1,7.7
	c-1-1.2-3.1-4.2-3.1-7.7C15.6,6.2,17.8,3.2,18.7,2z M16.3,16.4c0,0,0-0.1,0-0.1c0.6,1,1.2,1.7,1.6,2.2c-0.8,0.7-1.6,1.5-2.5,2.3
	C15.9,19.5,16.3,18,16.3,16.4z M18.8,19.4c0.3,0.3,1.2,1,2.5,1.8c0,0-0.1,0-0.1,0c-2.3,0-4.4,0.8-6,1.6
	C16.4,21.7,17.7,20.5,18.8,19.4z M11.9,8.7c1,1.2,3.1,4.2,3.1,7.7c0,3.5-2.1,6.5-3.1,7.7c-1-1.2-3.1-4.2-3.1-7.7
	C8.8,13,10.9,10,11.9,8.7z M11.9,26.1c0.2,0.2,1.3,1.1,2.9,2.1c-0.2,0-0.4,0-0.7,0c-2.5,0-4.7,0.9-6.3,1.8
	C9.1,28.7,10.4,27.4,11.9,26.1L11.9,26.1L11.9,26.1z M9.3,23.3c0-0.2,0-0.5,0-0.7c0.6,1.1,1.2,1.9,1.7,2.4c-0.8,0.8-1.6,1.6-2.4,2.3
	C8.9,26.2,9.3,24.8,9.3,23.3z M4.8,31c-1-1.2-3.1-4.2-3.1-7.7c0-3.5,2.1-6.5,3.1-7.7c1,1.2,3.1,4.2,3.1,7.7
	C7.9,26.7,5.9,29.6,4.8,31C4.9,30.9,4.8,31,4.8,31z M22,32.5c-1.2,1-4.3,3-7.8,3c-3.5,0-6.6-2.1-7.8-3c1.2-1,4.3-3,7.8-3
	C17.7,29.5,20.8,31.5,22,32.5z M29.1,25.6c-1.2,1-4.3,3-7.8,3c-3.5,0-6.6-2.1-7.8-3c1.2-1,4.3-3,7.8-3
	C24.8,22.6,27.8,24.6,29.1,25.6z M20.2,18.9c1.2-1,4.3-3,7.8-3c3.5,0,6.6,2.1,7.8,3c-1.2,1-4.3,3-7.8,3
	C24.6,21.9,21.5,19.8,20.2,18.9z"/>
</svg>
