<?xml version="1.0" encoding="utf-8"?>
<!-- Generator: Adobe Illustrator 22.0.1, SVG Export Plug-In . SVG Version: 6.00 Build 0)  -->
<svg version="1.1" id="Warstwa_1" xmlns="http://www.w3.org/2000/svg" xmlns:xlink="http://www.w3.org/1999/xlink" x="0px" y="0px"
	 viewBox="0 0 36 94" style="enable-background:new 0 0 36 94;" xml:space="preserve">
<style type="text/css">
	.st0{fill:none;}
	.st1{fill-rule:evenodd;clip-rule:evenodd;}
</style>
<g>
	<polygon class="st0" points="36,17.5 19,0.5 19,0 18.5,0 18.5,0 18.5,0 17,0 17,0.5 0,17.5 1.5,19 17,3.5 17,94 19,94 19,3.5 
		34.5,19 	"/>
</g>
<path class="st1" d="M19,0.5l17,17L34.5,19L19,3.5L19,94l-2,0l0-90.5L1.5,19L0,17.5l17-17V0l1.5,0l0,0l0,0L19,0V0.5z"/>
</svg>
