<?xml version="1.0" encoding="utf-8"?>
<!-- Generator: Adobe Illustrator 22.0.1, SVG Export Plug-In . SVG Version: 6.00 Build 0)  -->
<svg version="1.1" id="Warstwa_1" xmlns="http://www.w3.org/2000/svg" xmlns:xlink="http://www.w3.org/1999/xlink" x="0px" y="0px"
	 viewBox="0 0 41 40" style="enable-background:new 0 0 41 40;" xml:space="preserve">
<g>
	<g>
		<path d="M20.4,20.4c4,0,7.3-3.3,7.3-7.3c0-4-3.3-7.3-7.3-7.3h0c-4,0-7.3,3.3-7.3,7.3C13.1,17.1,16.4,20.4,20.4,20.4z M20.4,7.3
			c3.2,0,5.8,2.6,5.8,5.8c0,3.2-2.6,5.8-5.8,5.8c-3.2,0-5.8-2.6-5.8-5.8C14.6,9.9,17.2,7.3,20.4,7.3z M15.3,25.3l4.9,9.2l5-9
			c5-2,8.4-6.8,8.4-12.2C33.6,5.9,27.6,0,20.4,0C13.1,0,7.2,5.9,7.2,13.1C7.2,18.5,10.4,23.2,15.3,25.3z M20.4,1.5
			c6.4,0,11.7,5.2,11.7,11.7c0,4.9-3.1,9.3-7.7,11l-0.3,0.1l-3.9,7.1l-3.9-7.2L16.1,24c-4.5-1.8-7.4-6-7.4-10.8
			C8.7,6.7,13.9,1.5,20.4,1.5z M31,29h-2l8.7,9.5H3.3L12,29h-2L0,40h41L31,29z"/>
	</g>
</g>
</svg>
