<?xml version="1.0" encoding="utf-8"?>
<!-- Generator: Adobe Illustrator 22.0.1, SVG Export Plug-In . SVG Version: 6.00 Build 0)  -->
<svg version="1.1" id="Warstwa_1" xmlns="http://www.w3.org/2000/svg" xmlns:xlink="http://www.w3.org/1999/xlink" x="0px" y="0px"
	 viewBox="0 0 39 37" style="enable-background:new 0 0 39 37;" xml:space="preserve">
<g>
	<g>
		<path d="M19.3,23.7c0,0-2.3-0.1-3.4-0.8L9.4,34.1c0,0,3.8,3,10,3c6.2,0,9.8-3,9.8-3l-6.4-11.2C21.6,23.7,19.3,23.7,19.3,23.7z
			 M19.5,21c2.1,0,3.8-1.7,3.8-3.9c0-2.1-1.7-3.9-3.8-3.9c-2.1,0-3.8,1.7-3.8,3.9C15.6,19.3,17.3,21,19.5,21z M36.5,7.3
			c-3.1-5.4-7.4-7.1-7.4-7.1l-6.4,11.2c1.3,0.6,2.4,2.6,2.4,2.6s1.1,2,1,3.5l12.8,0C38.9,17.5,39.6,12.7,36.5,7.3z M13.9,13.8
			c0,0,1.2-1.9,2.5-2.6L10,0c0,0-4.4,1.8-7.5,7.2c-3.1,5.4-2.4,10-2.4,10h12.8C12.8,15.8,13.9,13.8,13.9,13.8z"/>
	</g>
</g>
</svg>
