<?xml version="1.0" encoding="utf-8"?>
<!-- Generator: Adobe Illustrator 22.0.1, SVG Export Plug-In . SVG Version: 6.00 Build 0)  -->
<svg version="1.1" id="Warstwa_1" xmlns="http://www.w3.org/2000/svg" xmlns:xlink="http://www.w3.org/1999/xlink" x="0px" y="0px"
	 viewBox="0 0 37 36" style="enable-background:new 0 0 37 36;" xml:space="preserve">
<g>
	<g>
		<path d="M35.3,13.2L18.5,0L1.7,13.2c-1,0.6-1.7,1.6-1.7,2.9v16.6C0,34.5,1.5,36,3.4,36h30.3c1.9,0,3.4-1.5,3.4-3.3V16.1
			C37,14.8,36.3,13.8,35.3,13.2z M18.5,1.7l15.7,12.4l-6.1,4.8L28,15h-2v-3H11v3H9l-0.1,3.9l-6.1-4.8L18.5,1.7z M12,15v-2h13v2H12z
			 M36,32c0,0.4-0.5,1.4-0.7,1.8l-10.8-8.5l-1.1,0.8l10.8,8.4C34,34.6,33.2,35,33,35H4c-0.2,0-1-0.4-1.2-0.4l10.7-8.4l-1.1-0.8
			L1.7,33.7C1.5,33.4,1,32.4,1,32V17c0-0.4,0.5-1.7,0.7-2l16.8,13.2L35.3,15c0.2,0.3,0.7,1.6,0.7,2V32z"/>
	</g>
</g>
</svg>
