<?xml version="1.0" encoding="utf-8"?>
<!-- Generator: Adobe Illustrator 22.0.1, SVG Export Plug-In . SVG Version: 6.00 Build 0)  -->
<svg version="1.1" id="Warstwa_1" xmlns="http://www.w3.org/2000/svg" xmlns:xlink="http://www.w3.org/1999/xlink" x="0px" y="0px"
	 viewBox="0 0 40 39" style="enable-background:new 0 0 40 39;" xml:space="preserve">
<g>
	<g>
		<path d="M35.8,26.7h-1.4c-0.1-1.2-0.5-2.4-0.9-3.6l2.7-1l0.5,1.5l1.3-0.4l-1.5-4.4l-1.3,0.4l0.5,1.6l-2.8,1
			c-0.8-1.7-1.9-3.4-3.2-4.9l2.6-2.4l1.1,1.3l1.1-0.9l-3-3.6l-1.1,0.9l1,1.2l-2.7,2.4c-1.3-1.4-2.8-2.6-4.4-3.6l1.9-2.9l1.5,0.9
			l0.7-1.2l-4-2.4l-0.7,1.2l1.3,0.8l-1.9,3c-0.9-0.4-1.8-0.8-2.7-1V4.1c0-2.3-1.9-4.1-4.2-4.1H4.2C1.9,0,0,1.8,0,4.1v30.8
			C0,37.1,1.9,39,4.2,39h12.2c0.1,0,0.2,0,0.3,0l0,0c0.4,0,0.9,0,1.2,0c0,0,0.1,0,0.2,0h17.8c2.3,0,4.2-1.8,4.2-4.1v-4.1
			C40,28.5,38.1,26.7,35.8,26.7z M1.4,4.1c0-1.5,1.2-2.7,2.8-2.7h12.2c1.5,0,2.8,1.2,2.8,2.7v7.1c0,0.3,0.2,0.6,0.6,0.7
			c6.1,1.3,12.5,8.5,13.3,14.8H1.4V4.1z M38.6,34.9c0,1.5-1.2,2.7-2.8,2.7l-17.8,0c0,0-0.1,0-0.2,0h0c-0.4,0-0.7,0-1.1,0l-0.1,0
			c0,0-0.1,0-0.1,0c0,0-0.1,0-0.1,0c0,0,0,0-0.1,0H4.2c-1.5,0-2.8-1.2-2.8-2.7V28h34.4c1.5,0,2.8,1.2,2.8,2.7V34.9z M23.2,19
			c-0.7-0.1-1.3,0.1-1.8,0.5l-9.3-4.4c0-0.1,0-0.1,0.1-0.2c0.4-1.9-0.9-3.8-2.8-4.2c-0.2,0-0.5-0.1-0.7-0.1c-1.7,0-3.2,1.2-3.6,2.8
			c-0.4,1.9,0.9,3.8,2.8,4.2c0.2,0,0.5,0.1,0.7,0.1c1.2,0,2.2-0.6,2.9-1.4l9.2,4.3c-0.2,1.1,0.5,2.1,1.6,2.3
			c1.1,0.2,2.2-0.5,2.5-1.6C25.1,20.3,24.4,19.2,23.2,19z M10.9,14.5L9,13.5c-0.3-0.2-0.8,0-0.9,0.3c-0.2,0.3,0,0.7,0.3,0.9l1.9,0.9
			c-0.5,0.5-1.3,0.8-2.1,0.6c-1.2-0.2-2-1.4-1.7-2.6c0.2-1,1.1-1.8,2.2-1.8c0.2,0,0.3,0,0.5,0C10.3,12.2,11,13.3,10.9,14.5z"/>
	</g>
</g>
</svg>
