<?xml version="1.0" encoding="utf-8"?>
<!-- Generator: Adobe Illustrator 22.0.1, SVG Export Plug-In . SVG Version: 6.00 Build 0)  -->
<svg version="1.1" id="Warstwa_1" xmlns="http://www.w3.org/2000/svg" xmlns:xlink="http://www.w3.org/1999/xlink" x="0px" y="0px"
	 viewBox="0 0 17.5 17.6" style="enable-background:new 0 0 17.5 17.6;" xml:space="preserve">
<style type="text/css">
	.st0{fill-rule:evenodd;clip-rule:evenodd;}
</style>
<path class="st0" d="M11.4,0.2c0-0.1-0.1-0.2-0.3-0.2H6.7c-0.6,0-1.3,0.1-2,0.2C4,0.4,3.3,0.8,2.6,1.3c-1,0.9-1.5,2-1.5,3.2
	c0,1,0.4,1.9,1,2.6c0.7,0.8,1.7,1.2,2.9,1.2c0.1,0,0.2,0,0.3,0C5.3,8.5,5.3,8.7,5.3,8.9c0,0.4,0.1,0.7,0.3,1
	c0.1,0.1,0.1,0.2,0.2,0.3c-0.4,0-0.9,0.1-1.5,0.2c-0.8,0.1-1.6,0.4-2.4,0.9c-0.7,0.4-1.2,0.9-1.4,1.5C0.1,13.2,0,13.7,0,14.2
	c0,0.9,0.4,1.7,1.3,2.4c0.8,0.7,2.1,1.1,3.7,1.1c0,0,0,0,0,0c0,0,0,0,0,0c1.9,0,3.4-0.5,4.5-1.4c1-0.9,1.5-1.9,1.5-3.1
	c0-0.8-0.2-1.5-0.6-2c-0.4-0.5-0.8-0.9-1.3-1.3L8.4,9.2C8.3,9.1,8.2,8.9,8,8.8C7.9,8.7,7.9,8.6,7.9,8.4c0-0.2,0-0.3,0.2-0.5
	c0.1-0.2,0.2-0.3,0.3-0.4c0.2-0.2,0.5-0.4,0.7-0.6c0.2-0.2,0.4-0.4,0.6-0.7C10,5.7,10.2,5,10.2,4.1c0-0.5-0.1-0.9-0.2-1.2
	C9.9,2.5,9.7,2.2,9.6,2C9.4,1.7,9.3,1.5,9.1,1.4h0.6c0,0,0.1,0,0.1,0l1.4-0.8C11.4,0.5,11.4,0.3,11.4,0.2z M17.5,2.7
	c0-0.2-0.1-0.3-0.3-0.3h-2.1V0.4c0-0.2-0.1-0.3-0.3-0.3h-1.1c-0.2,0-0.3,0.1-0.3,0.3v2.1h-2.1c-0.2,0-0.3,0.1-0.3,0.3v1.1
	c0,0.2,0.1,0.3,0.3,0.3h2.1v2.1c0,0.2,0.1,0.3,0.3,0.3h1.1c0.2,0,0.3-0.1,0.3-0.3V4.1h2.1c0.2,0,0.3-0.1,0.3-0.3V2.7z M7.4,6.6
	C7,7,6.6,7.1,6.1,7.1C5.7,7.1,5.4,7,5.1,6.8c-0.3-0.3-0.6-0.6-0.8-1C3.8,5,3.6,4.2,3.6,3.4c0-0.6,0.1-1,0.4-1.5
	c0.3-0.4,0.8-0.6,1.3-0.6c0.4,0,0.7,0.1,1,0.3c0.3,0.2,0.6,0.6,0.8,1c0.4,0.9,0.6,1.7,0.6,2.5c0,0.2,0,0.4,0,0.7
	C7.6,6.1,7.5,6.4,7.4,6.6z M6.3,11.3C6.3,11.3,6.3,11.3,6.3,11.3c0.2,0,0.3,0,0.4,0c0.8,0.6,1.4,1,1.7,1.4C8.8,13.1,9,13.5,9,14
	c0,0.6-0.2,1.1-0.7,1.5C7.8,15.9,7,16.1,6,16.1c-1.1,0-2-0.3-2.6-0.7c-0.6-0.5-1-1-1-1.7c0-0.4,0.1-0.7,0.2-0.9
	c0.1-0.2,0.3-0.4,0.5-0.6c0.2-0.2,0.4-0.3,0.6-0.4c0.2-0.1,0.4-0.2,0.5-0.2c0.5-0.1,0.9-0.2,1.4-0.3C5.8,11.3,6.1,11.3,6.3,11.3
	C6.3,11.3,6.3,11.3,6.3,11.3z"/>
</svg>
