<?xml version="1.0" encoding="utf-8"?>
<!-- Generator: Adobe Illustrator 22.0.1, SVG Export Plug-In . SVG Version: 6.00 Build 0)  -->
<svg version="1.1" id="Warstwa_1" xmlns="http://www.w3.org/2000/svg" xmlns:xlink="http://www.w3.org/1999/xlink" x="0px" y="0px"
	 viewBox="0 0 28.5 29.2" style="enable-background:new 0 0 28.5 29.2;" xml:space="preserve">
<style type="text/css">
	.st0{fill-rule:evenodd;clip-rule:evenodd;}
</style>
<g>
	<g>
		<path class="st0" d="M20.5,3.5c-4.7-4.7-12.3-4.7-17,0c-4.7,4.7-4.7,12.3,0,17c4.7,4.7,12.3,4.7,17,0C25.2,15.8,25.2,8.2,20.5,3.5
			z M4.9,19.1C1,15.2,1,8.8,4.9,4.9C8.8,1,15.2,1,19.1,4.9c3.9,3.9,3.9,10.2,0,14.2C15.2,23,8.8,23,4.9,19.1z M21.8,20.4l-2.1,2.1
			l6.7,6.7l2.1-2.1L21.8,20.4z"/>
	</g>
</g>
</svg>
