<?xml version="1.0" encoding="utf-8"?>
<!-- Generator: Adobe Illustrator 22.0.1, SVG Export Plug-In . SVG Version: 6.00 Build 0)  -->
<svg version="1.1" id="Warstwa_1" xmlns="http://www.w3.org/2000/svg" xmlns:xlink="http://www.w3.org/1999/xlink" x="0px" y="0px"
	 viewBox="0 0 38 35" style="enable-background:new 0 0 38 35;" xml:space="preserve">
<style type="text/css">
	.st0{fill:#070000;}
</style>
<g>
	<g>
		<path class="st0" d="M35,10h-3V4c0-2.3-1.7-4-4-4H11C8.7,0,7,1.7,7,4v6H3c-1.9,0-3,1.1-3,3v15.2C0,30.1,1.1,32,3,32h4l-1,3h27
			l-1-3h3c1.9,0,3-1.9,3-3.8L38,13C38,9.6,35,10,35,10z M9,4c0.1-1.6,0.5-2,2-2h17c1.5,0,2,0.5,2,2v6H9C9,10,9,4.1,9,4z M32,30h-1
			l-2-5h-2l3,8H9l2-8H9l-1,5H6v-5c0-1.5,0.5-2,2-2h22c1.5,0,2,0.5,2,2V30z M35,30h-1v-5c0-2.3-1.7-4-4-4H8c-2.3,0-4,1.7-4,4v5H3
			c-1.1,0-1-0.8-1-2V13c0-1.2-0.1-1,1-1h32c1.1,0,1-0.2,1,1v15C36,29.2,36.1,30,35,30z M8.5,14C7.7,14,7,14.7,7,15.5
			C7,16.3,7.7,17,8.5,17c0.8,0,1.5-0.7,1.5-1.5C10,14.7,9.3,14,8.5,14z M25,26H13v1h12V26z M12,30h14v-1H12V30z"/>
	</g>
</g>
</svg>
