<?xml version="1.0" encoding="utf-8"?>
<!-- Generator: Adobe Illustrator 22.0.1, SVG Export Plug-In . SVG Version: 6.00 Build 0)  -->
<svg version="1.1" id="Warstwa_1" xmlns="http://www.w3.org/2000/svg" xmlns:xlink="http://www.w3.org/1999/xlink" x="0px" y="0px"
	 viewBox="0 0 39 41" style="enable-background:new 0 0 39 41;" xml:space="preserve">
<g>
	<g>
		<path d="M39,8.6L19.5,0L0,8.6l0,0v20.9L19.5,41L39,29.6L39,8.6C39,8.6,39,8.6,39,8.6z M19.5,1.6l16.4,7.2l-7,4l-16-8.3L19.5,1.6z
			 M1.5,28.7V9.6h0.2l17.1,9.7l0,19.7L1.5,28.7z M3.2,8.8l8-3.5l16.2,8.4L19.5,18L3.2,8.8z M37.6,28.8L20.2,38.9l0-19.7l17.1-9.7
			h0.3V28.8z M39,8.6C39,8.6,39,8.6,39,8.6L39,8.6C39,8.6,39,8.6,39,8.6z M5.4,24.9l7.9,4.6V22l-7.9-4.6V24.9z M6.9,19.8l5.1,3v4.3
			l-5.1-3V19.8z"/>
	</g>
</g>
</svg>
