<?xml version="1.0" encoding="utf-8"?>
<!-- Generator: Adobe Illustrator 22.0.1, SVG Export Plug-In . SVG Version: 6.00 Build 0)  -->
<svg version="1.1" id="Warstwa_1" xmlns="http://www.w3.org/2000/svg" xmlns:xlink="http://www.w3.org/1999/xlink" x="0px" y="0px"
	 viewBox="0 0 38 33" style="enable-background:new 0 0 38 33;" xml:space="preserve">
<g>
	<g>
		<path d="M33.9,19.9L31.1,1.4H17.5c-1.9,0-3.4,1.5-3.4,3.4l-0.7,21.6c0,1.8,1.3,3.2,3.1,3.4c0.5,1.9,2.2,3.3,4.3,3.3
			c2,0,3.7-1.4,4.3-3.2h1.7c0.5,1.9,2.2,3.2,4.3,3.2c2.1,0,3.8-1.4,4.3-3.3c1.6-0.3,2.8-1.7,2.8-3.3v-6.5H33.9z M15.3,7.1h7.8
			c1.1,0,2.1,0.9,2.1,2v1.2l-5,8.5H15L15.3,7.1z M20.7,31.6c-1.7,0-3.1-1.4-3.1-3.1c0-1.7,1.4-3.1,3.1-3.1c1.7,0,3.1,1.4,3.1,3.1
			C23.8,30.3,22.4,31.6,20.7,31.6z M31,31.6c-1.7,0-3.1-1.4-3.1-3.1c0-1.7,1.4-3.1,3.1-3.1c1.7,0,3.1,1.4,3.1,3.1
			C34,30.3,32.6,31.6,31,31.6z M36.6,26.4c0,0.8-0.5,1.6-1.3,1.9c-0.2-2.3-2.1-4.1-4.4-4.1c-2.4,0-4.3,1.9-4.4,4.2h-1.4
			c-0.1-2.4-2-4.2-4.4-4.2c-2.4,0-4.3,1.9-4.4,4.2c-0.9-0.2-1.5-1-1.6-2l0.2-6.2h5.8l5.8-9.2V9.2c0-1.9-1.5-3.4-3.4-3.4h-7.7l0-1
			l0,0v0c0-1.1,0.9-2,2.1-2H30l2.6,17.4l0.2,1.2h3.9V26.4z M9.3,29.8l-9.1-0.7L0,30.5l10.6,0.8V0H9.3V29.8z"/>
	</g>
</g>
</svg>
