<?xml version="1.0" encoding="utf-8"?>
<!-- Generator: Adobe Illustrator 22.0.1, SVG Export Plug-In . SVG Version: 6.00 Build 0)  -->
<svg version="1.1" id="Warstwa_1" xmlns="http://www.w3.org/2000/svg" xmlns:xlink="http://www.w3.org/1999/xlink" x="0px" y="0px"
	 viewBox="0 0 192 183.9" style="enable-background:new 0 0 192 183.9;" xml:space="preserve">
<path d="M25.6,15.6c-6.4,2.6-9.6,6.8-9.6,12.4c0,2.6,0.8,5.2,2.5,7.8c5.5,9,9.3,17.5,11.6,25.6c2.3,8.1,3.4,15.9,3.4,23.5
	c0,7.1-0.8,13.9-2.5,20.3c-1.7,6.4-3.9,12.5-6.8,18.3c-2.8,5.8-6,11.4-9.6,16.7c-3.6,5.3-7.2,10.3-11,14.8c-2.4,2.4-3.6,5.2-3.6,8.5
	c0,1.4,0.3,2.8,0.9,4.3c0.6,1.4,1.8,2.7,3.7,3.9l19.6,12.1c18.7-16.4,33.4-34.3,43.9-53.9c10.5-19.6,15.8-40.1,15.8-61.7
	c0-11.4-1.5-22.8-4.6-34.1C76.2,22.8,71.2,11.4,64.4,0L25.6,15.6z M133.7,15.6c-6.4,2.6-9.6,6.8-9.6,12.4c0,2.6,0.8,5.2,2.5,7.8
	c5.5,9,9.3,17.5,11.6,25.6c2.3,8.1,3.4,15.9,3.4,23.5c0,7.1-0.8,13.9-2.5,20.3c-1.7,6.4-3.9,12.5-6.8,18.3c-2.8,5.8-6,11.4-9.6,16.7
	c-3.6,5.3-7.2,10.3-11,14.8c-2.4,2.4-3.6,5.2-3.6,8.5c0,1.4,0.3,2.8,0.9,4.3c0.6,1.4,1.8,2.7,3.7,3.9l19.6,12.1
	c18.7-16.4,33.4-34.3,43.9-53.9c10.5-19.6,15.8-40.1,15.8-61.7c0-11.4-1.5-22.8-4.6-34.1c-3.1-11.4-8.1-22.8-14.9-34.1L133.7,15.6z"
	/>
</svg>
