<?xml version="1.0" encoding="utf-8"?>
<!-- Generator: Adobe Illustrator 22.0.1, SVG Export Plug-In . SVG Version: 6.00 Build 0)  -->
<svg version="1.1" id="Warstwa_1" xmlns="http://www.w3.org/2000/svg" xmlns:xlink="http://www.w3.org/1999/xlink" x="0px" y="0px"
	 viewBox="0 0 64 29" style="enable-background:new 0 0 64 29;" xml:space="preserve">
<path d="M60.1,29H3.8C1.7,29,0,27.3,0,25.2V23c0,0,0,0,0-0.1c0,0,0,0,0-0.1V10.7C0,7.4,0,1.3,4.6,1h0.1c0,0,0,0,0.1,0
	c1.7,0,3.1,1.1,4.5,2.3C11,4.7,13,6.4,16.1,6.4c4.4,0,6.5-2.3,8-3.9c0.4-0.4,0.7-0.8,1-1.1c2.1-1.8,4.9-1.9,7.7-0.2
	c0.2,0.1,0.5,0.3,0.9,0.6c1.2,0.8,3.2,2,5.6,3.5l1,0.6c4.5,2.7,8.2,4.7,10.8,5.9l1.1,0.5c1.2,0.5,1.9,0.7,2.3,0.8
	c7.6,1.7,9.2,7.8,9.5,9.2c0.1,0.2,0.1,0.4,0.1,0.6v2.2C64,27.3,62.3,29,60.1,29z M32,4.5c-0.4-0.2-0.7-0.4-0.9-0.5
	c-1.6-1-2.8-1.1-3.9-0.2C27,4,26.8,4.3,26.4,4.6c-1.7,1.9-4.5,5-10.3,5c-4.2,0-6.9-2.2-8.8-3.8C6.3,5,5.4,4.2,4.8,4.2H4.7
	C3.2,4.3,3,9.1,3,11v10h22L39,8C37.8,7.3,32.7,4.9,32,4.5z M42,10l-1-1L28,21h2.8L42,10z M34,21h2.2l8.8-9c-0.5-0.3-0.9-0.7-1.4-1
	L34,21z M53.6,16c-0.8-0.2-1.7-0.5-2.8-1l-1.1-0.5C48.9,14,48,13.6,47,13l-8,8h21C59.2,19.3,57.5,16.8,53.6,16z M61,24H3v1
	c0,0.6,0.3,1,0.7,1h56.7c0.4,0,0.7-0.5,0.7-1v-1H61z"/>
</svg>
