<?xml version="1.0" encoding="utf-8"?>
<!-- Generator: Adobe Illustrator 22.0.1, SVG Export Plug-In . SVG Version: 6.00 Build 0)  -->
<svg version="1.1" id="Warstwa_1" xmlns="http://www.w3.org/2000/svg" xmlns:xlink="http://www.w3.org/1999/xlink" x="0px" y="0px"
	 viewBox="0 0 38 26" style="enable-background:new 0 0 38 26;" xml:space="preserve">
<path d="M34.5,8.6h-1.1v3h-2.6V8.9c0,0-0.1,0-0.1,0c-3.4,0-4.8-0.7-4.8-4.2c0-0.2,0-0.5,0-0.7h-8.8V1.5h5.5V0H10.2v1.5h5.5V4H8.1
	C7.2,6.1,5.6,7.8,3.7,8.8v4.9H1.4V8H0l0,12.8h1.4l0-5.7h2.3v5.1h4.9c1.9,0,3.5,1.6,3.5,3.6v2h15.2c1.9,0,3.5-1.6,3.5-3.6v-1.9h2.6
	v3.4h1.1c1.9,0,3.5-1.6,3.5-3.6v-8C38,10.2,36.4,8.6,34.5,8.6 M36.6,20.2c0,1.1-0.8,2-1.8,2.2v-1.9V19h-1.4h-2.6h-1.4v1.5v1.9
	c0,1.2-0.9,2.2-2.1,2.2H13.5V24c0-2.8-2.2-5.1-4.9-5.1H5.1V9.7C6.7,8.6,8,7.1,9,5.4h15.6c0.1,2.3,0.8,4.5,4.9,4.9v1.2V13h1.4h2.6
	h1.4v-1.5v-1.5c1,0.2,1.8,1.1,1.8,2.2V20.2z"/>
</svg>
