<?xml version="1.0" encoding="utf-8"?>
<!-- Generator: Adobe Illustrator 22.0.1, SVG Export Plug-In . SVG Version: 6.00 Build 0)  -->
<svg version="1.1" id="Warstwa_1" xmlns="http://www.w3.org/2000/svg" xmlns:xlink="http://www.w3.org/1999/xlink" x="0px" y="0px"
	 viewBox="0 0 28 75" style="enable-background:new 0 0 28 75;" xml:space="preserve">
<path d="M27.5,61.4L15.3,74.5C14.9,74.8,14.5,75,14,75s-0.9-0.2-1.3-0.5L0.5,61.4C0.1,61,0,60.5,0,60l5.9-48L4.7,2
	C4.6,1.5,4.8,1,5.1,0.7C5.5,0.2,6,0,6.5,0h15c0.5,0,1,0.2,1.3,0.6s0.5,0.9,0.4,1.3l-1.2,10L28,60C28.1,60.5,27.9,61,27.5,61.4z
	 M14,70.7l10.5-11.1l-0.6-4.8L11.1,67.6L14,70.7z M8.4,3.5l0.9,7.7h9.4l0.9-7.7H8.4z M8,23.1l10.2-10.2h-9L8,23.1z M18.9,14.6
	L7.7,25.8L6.3,37.5L20,23.7L18.9,14.6z M20.3,25.9L5.9,40.3l-1.7,14l17.5-17.5L20.3,25.9z M21.9,39l-18,18.1l-0.3,2.5l6.4,6.8
	l13.7-13.7L21.9,39z"/>
</svg>
