<?xml version="1.0" encoding="utf-8"?>
<!-- Generator: Adobe Illustrator 22.0.1, SVG Export Plug-In . SVG Version: 6.00 Build 0)  -->
<svg version="1.1" id="Warstwa_1" xmlns="http://www.w3.org/2000/svg" xmlns:xlink="http://www.w3.org/1999/xlink" x="0px" y="0px"
	 viewBox="0 0 40 24" style="enable-background:new 0 0 40 24;" xml:space="preserve">
<g>
	<g>
		<path d="M39.9,15.6V7.4c0-2-1.6-3.6-3.7-3.6H30V3.6c0-2-1.6-3.6-3.7-3.6H3.7C1.6,0,0,1.6,0,3.6V17c0,1.9,1.5,3.5,3.4,3.6
			C3.8,22.5,5.5,24,7.5,24c1.9,0,3.5-1.2,4-3c0.5,1.7,2.1,3,4,3c2,0,3.7-1.4,4.1-3.4h6.6c1,0,2-0.4,2.6-1.1c0,0.1,0,0.2,0,0.3
			c0,2.3,1.9,4.2,4.2,4.2c2.3,0,4.2-1.9,4.2-4.2c0-0.2,0-0.4-0.1-0.6h1.1C40.5,19.2,39.9,17.6,39.9,15.6z M7.5,22.6
			c-1.5,0-2.7-1.2-2.7-2.7c0-1.5,1.2-2.7,2.7-2.7c1.5,0,2.7,1.2,2.7,2.7C10.3,21.3,9.1,22.6,7.5,22.6z M15.6,22.6
			c-1.5,0-2.7-1.2-2.7-2.7c0-1.5,1.2-2.7,2.7-2.7c1.5,0,2.7,1.2,2.7,2.7C18.3,21.3,17.1,22.6,15.6,22.6z M28.6,17
			c0,1.2-1,2.2-2.2,2.2h-6.6c-0.3-2-2.1-3.5-4.2-3.5c-1.9,0-3.5,1.2-4,3c-0.5-1.7-2.1-3-4-3c-2.1,0-3.8,1.5-4.2,3.5
			c-1.1-0.1-1.9-1-1.9-2.2V3.6c0-1.2,1-2.2,2.2-2.2h22.7c1.2,0,2.2,1,2.2,2.2V17z M33.2,22.6c-1.5,0-2.7-1.2-2.7-2.7
			c0-1.5,1.2-2.7,2.7-2.7c1.5,0,2.7,1.2,2.7,2.7C35.9,21.3,34.7,22.6,33.2,22.6z M38.5,17.7C38.5,17.7,38.5,17.7,38.5,17.7l-1.7,0
			c-0.7-1.2-2.1-2.1-3.6-2.1c-1.3,0-2.4,0.6-3.2,1.4c0,0,0,0,0-0.1V5.2h6.2c1,0,1.8,0.6,2.1,1.4h-5.9V11l6,2.2v1.7h-1.5v1.4h1.6
			c0,0.2,0,0.3,0,0.5C38.5,17.1,38.5,17.5,38.5,17.7z M38.5,8.1v3.5L33.9,10V8.1H38.5z M15,5.2c-4.9,0-8.9,1.7-8.9,3.7
			c0,2.1,4,3.7,8.9,3.7S23.9,11,23.9,9C23.9,6.9,19.9,5.2,15,5.2z"/>
	</g>
</g>
</svg>
