<?xml version="1.0" encoding="utf-8"?>
<!-- Generator: Adobe Illustrator 22.0.1, SVG Export Plug-In . SVG Version: 6.00 Build 0)  -->
<svg version="1.1" id="Warstwa_1" xmlns="http://www.w3.org/2000/svg" xmlns:xlink="http://www.w3.org/1999/xlink" x="0px" y="0px"
	 viewBox="0 0 15.9 13" style="enable-background:new 0 0 15.9 13;" xml:space="preserve">
<style type="text/css">
	.st0{fill-rule:evenodd;clip-rule:evenodd;}
</style>
<path class="st0" d="M15.8,1.9c-0.4,0.6-0.9,1.2-1.5,1.6c0,0.1,0,0.2,0,0.3c0,4.5-3.4,9.2-9.2,9.2c-1.8,0-3.5-0.5-5-1.5
	C0,11.5,0,11.4,0,11.3c0-0.1,0.2-0.2,0.3-0.2c0.2,0,0.5,0,0.7,0c1.1,0,2.2-0.3,3.2-0.9C3,10,2.1,9.1,1.7,7.9c0-0.1,0-0.2,0.1-0.3
	C1.9,7.6,2,7.6,2,7.6c0.1,0,0.1,0,0.2,0C1.2,7,0.6,5.9,0.6,4.7v0c0-0.1,0.1-0.2,0.1-0.2c0.1-0.1,0.2-0.1,0.3,0
	c0.1,0.1,0.2,0.1,0.4,0.2C0.9,4,0.6,3.2,0.6,2.4c0-0.6,0.2-1.2,0.5-1.7c0-0.1,0.1-0.1,0.2-0.1c0.1,0,0.2,0,0.2,0.1
	c1.5,1.8,3.6,3,5.9,3.2c0-0.1,0-0.3,0-0.4C7.5,1.5,9,0,10.9,0c0.9,0,1.8,0.4,2.4,1c0.6-0.1,1.2-0.4,1.8-0.7c0.1-0.1,0.2-0.1,0.3,0
	c0.1,0.1,0.1,0.2,0.1,0.3c-0.1,0.4-0.4,0.8-0.6,1.2c0.2-0.1,0.5-0.2,0.7-0.3c0.1,0,0.2,0,0.3,0.1C15.9,1.7,15.9,1.8,15.8,1.9z"/>
</svg>
