<?xml version="1.0" encoding="utf-8"?>
<!-- Generator: Adobe Illustrator 22.0.1, SVG Export Plug-In . SVG Version: 6.00 Build 0)  -->
<svg version="1.1" id="Warstwa_1" xmlns="http://www.w3.org/2000/svg" xmlns:xlink="http://www.w3.org/1999/xlink" x="0px" y="0px"
	 viewBox="0 0 57.4 58" style="enable-background:new 0 0 57.4 58;" xml:space="preserve">
<style type="text/css">
	.st0{fill:#213379;}
</style>
<g>
	<g>
		<path class="st0" d="M49,8.5C37.8-2.8,19.6-2.8,8.4,8.5s-11.2,29.7,0,41c5.6,5.7,13,8.5,20.3,8.5c7.4,0,14.7-2.8,20.3-8.5
			C60.2,38.2,60.2,19.8,49,8.5z M8.5,46.7c-8.7-10.1-8.7-25.3,0-35.5V46.7z M10.4,48.8V12.5L27.7,30v19.1h1.9V32l17,17.2
			C36.4,58.5,20.5,58.4,10.4,48.8z M47,46.8L30,29.7l17-17.1V46.8z M29.7,27.3V9.5h-1.9v17.8L10.1,9.5c5.2-5,11.9-7.6,18.6-7.6
			s13.4,2.5,18.6,7.6L29.7,27.3z M48.9,46.7V11.3C57.7,21.4,57.7,36.6,48.9,46.7z"/>
	</g>
</g>
</svg>
