<?xml version="1.0" encoding="utf-8"?>
<!-- Generator: Adobe Illustrator 22.0.1, SVG Export Plug-In . SVG Version: 6.00 Build 0)  -->
<svg version="1.1" id="Warstwa_1" xmlns="http://www.w3.org/2000/svg" xmlns:xlink="http://www.w3.org/1999/xlink" x="0px" y="0px"
	 viewBox="0 0 2290 394" style="enable-background:new 0 0 2290 394;" xml:space="preserve">
<g>
	<g>
		<path d="M1645.5,72.3h21c19.4,0,26.2-8.4,26.2-22.4V36.6c0-13.8-6.8-22.2-26.2-22.2h-32.7v90.3h11.7V72.3z M1645.5,24.8h20.6
			c11.1,0,14.9,3,14.9,11.9V50c0,8.8-3.8,11.9-14.9,11.9h-20.6V24.8z M1721.7,14.3h-11.7v90.3h11.7V14.3z M1798.8,94.2h-41.6V63.5
			h38.5V53.1h-38.5V24.8h41.5V14.3h-53.2v90.3h53.3V94.2z M1847.6,106c6.8,0,16.3-0.9,22.8-2.4l-1.2-10c-6.9,1.2-15.7,1.9-21.1,1.9
			c-14.8,0-19.7-4.1-19.7-16.7V40.2c0-12.6,4.9-16.7,19.7-16.7c5.4,0,14.2,0.7,21.1,1.9l1.2-10c-6.5-1.5-16-2.4-22.8-2.4
			c-22.1,0-30.9,9.5-30.9,26.6v39.9C1816.7,96.5,1825.5,106,1847.6,106z M1947,94.6h-47.6l46.7-70.2v-10h-58.6v10h45.7l-46.5,70.2
			v10h60.4V94.6z M1998,106c23.3,0,32.7-12.3,32.7-27.4V40.3c0-15.1-9.4-27.4-32.7-27.4c-23.3,0-32.7,12.3-32.7,27.4v38.2
			C1965.3,93.6,1974.7,106,1998,106z M1977,40.6c0-11.1,6.8-17.4,21-17.4c14.2,0,21,6.2,21,17.4v37.7c0,11.1-6.8,17.4-21,17.4
			c-14.2,0-21-6.2-21-17.4V40.6z M2062.8,27.7l39.3,76.9h16V14.3H2107v77.3l-39.3-77.3h-16v90.3h11.1V27.7z M2141.2,104.6h11.7V14.3
			h-11.7V104.6z M2202,14.3h-13.7l-32.5,44.3l35,46h14l-35.8-46L2202,14.3z M2259.5,14.3h-15.7l-30.5,90.3h11.8l7.3-21.7h38.4
			l7.5,21.7h11.8L2259.5,14.3z M2235.5,72.8l16.1-50l16.1,50H2235.5z M1689.2,230.1l-39.3-77.3h-16v90.3h11.1v-76.9l39.3,76.9h16
			v-90.3h-11.1V230.1z M1786.7,217.1v-38.2c0-15.1-9.4-27.4-32.7-27.4c-23.3,0-32.7,12.3-32.7,27.4v38.2c0,15.1,9.4,27.4,32.7,27.4
			C1777.4,244.5,1786.7,232.2,1786.7,217.1z M1733,216.8v-37.7c0-11.1,6.8-17.4,21-17.4c14.2,0,21,6.2,21,17.4v37.7
			c0,11.1-6.8,17.4-21,17.4C1739.8,234.2,1733,228,1733,216.8z M1916.6,152.8h-11.4l-20.6,79.2l-18.7-79.2h-16.3l-18.7,79.2
			l-20.6-79.2h-11.4l23.7,90.3h16.4l18.7-80.7l18.7,80.7h16.4L1916.6,152.8z M1934.9,243.2l7.3-21.7h38.4l7.5,21.7h11.8l-30.5-90.3
			h-15.7l-30.5,90.3H1934.9z M1961.5,161.3l16.1,50h-32.3L1961.5,161.3z M2065.7,232c-6.9,1.2-15.7,1.9-21.2,1.9
			c-14.8,0-19.7-4.1-19.7-16.7v-38.5c0-12.6,4.9-16.7,19.7-16.7c5.4,0,14.2,0.7,21.2,1.9l1.2-10c-6.5-1.5-16-2.4-22.8-2.4
			c-22.1,0-30.9,9.5-30.9,26.6v39.9c0,17.1,8.8,26.6,30.9,26.6c6.8,0,16.3-1,22.8-2.4L2065.7,232z M2096.9,243.2v-90.3h-11.7v90.3
			H2096.9z M2112.9,197.2l33.1-44.3h-13.7l-32.6,44.3l35,46h14L2112.9,197.2z M2165.6,152.8v90.3h11.7v-90.3H2165.6z M1666.5,291.4
			h-32.7v90.3h11.7v-32.3h21c19.4,0,26.2-8.4,26.2-22.4v-13.4C1692.7,299.8,1685.9,291.4,1666.5,291.4z M1681.1,327
			c0,8.8-3.8,11.9-14.9,11.9h-20.6v-37.2h20.6c11.1,0,14.9,3,14.9,11.9V327z M1710.1,381.7h11.7v-90.3h-11.7V381.7z M1757.1,340.6
			h38.5v-10.4h-38.5v-28.3h41.5v-10.4h-53.2v90.3h53.3v-10.4h-41.6V340.6z M1809.9,301.8h27v79.9h11.7v-79.9h27v-10.4h-65.6V301.8z
			 M1950.4,326.6v-13c0-13.8-6.8-22.2-26.2-22.2h-34.4v90.3h11.7V349h22.1l22.5,32.7h13.4l-23.5-34
			C1946.5,344.7,1950.4,337.4,1950.4,326.6z M1901.4,338.7v-36.9h22.4c11.1,0,14.9,3,14.9,11.9v13c0,8.8-3.8,11.9-14.9,11.9H1901.4z
			 M2032.9,301.4v-10h-58.6v10h45.7l-46.5,70.3v10h60.4v-10h-47.6L2032.9,301.4z M2076.9,291.4l-30.5,90.3h11.8l7.3-21.7h38.4
			l7.5,21.7h11.8l-30.5-90.3H2076.9z M2068.7,349.8l16.1-50l16.1,50H2068.7z M2199.3,291.4h-13.7l-32.5,44.3l35,46h14l-35.8-46
			L2199.3,291.4z M2138.5,381.7h11.7v-90.3h-11.7V381.7z M145.7,94.5h32.4V78.8H94.9v15.7h31.3v220.7h52.2v-15.7h-32.7V94.5z
			 M173.2,189.2L269,94.5h25.4V78.8H262L148.2,190.9l111.8,124.3h39.4v-15.7h-25.4L173.2,189.2z M870.1,315.1h49.8v-15.7h-33.4V100
			l142.4,218.2h18.5V94.5h30.6V78.8h-47v210.6L894.2,78.8h-55.7v15.7h31.7V315.1z M0,394h1535.6V0H0V394z M13.3,13.3h367.3v65.5
			h13.3V13.3h367.3v65.5h13.3V13.3h367.3v65.5h13.3V13.3h367.3v367.4H1155v-65.5h-13.3v65.5H774.5v-65.5h-13.3v65.5H393.9v-65.5
			h-13.3v65.5H13.3V13.3z M1299.5,217.8h54c22.8,0,41-6.3,54.7-18.8c13.7-12.5,20.6-29.4,20.6-50.5c0-22.1-7-39.2-20.9-51.5
			c-13.9-12.1-33.2-18.1-57.8-18.1h-101.4v15.7h31.3v205.1h-31.3v15.7h50.9V217.8z M1299.5,94.5h47c21.6,0,37.5,4.4,47.7,13.2
			c10,8.6,15,22.9,15,42.8c0,17-5.5,29.8-16.4,38.7c-10.7,8.6-26.1,12.9-46.3,12.9h-47V94.5z M538.5,217.8h54
			c22.8,0,41-6.3,54.7-18.8c13.7-12.5,20.6-29.4,20.6-50.5c0-22.1-7-39.2-20.9-51.5c-13.9-12.1-33.2-18.1-57.8-18.1H487.6v15.7H519
			v205.1h-31.4v15.7h50.9V217.8z M538.5,94.5h47c21.6,0,37.5,4.4,47.7,13.2c10,8.6,15,22.9,15,42.8c0,17-5.5,29.8-16.4,38.7
			c-10.7,8.6-26.1,12.9-46.3,12.9h-47V94.5z"/>
	</g>
</g>
</svg>
