<?xml version="1.0" encoding="utf-8"?>
<!-- Generator: Adobe Illustrator 22.0.1, SVG Export Plug-In . SVG Version: 6.00 Build 0)  -->
<svg version="1.1" id="Warstwa_1" xmlns="http://www.w3.org/2000/svg" xmlns:xlink="http://www.w3.org/1999/xlink" x="0px" y="0px"
	 viewBox="0 0 224.1 44.7" style="enable-background:new 0 0 224.1 44.7;" xml:space="preserve">
<style type="text/css">
	.st0{fill:#213379;}
</style>
<g>
	<g>
		<path class="st0" d="M9.1,37.2L9.1,37.2H7.7l-3,3.2v-3.2H3.5v7.3h1.2v-3.3l3.2,3.3h1.5v-0.1l-3.6-3.7L9.1,37.2z M17.3,37.2
			L14,44.5h1.2l0.7-1.5h3.9l0.7,1.5h1.2l-3.3-7.3H17.3z M16.4,41.9l1.5-3.5l1.5,3.5H16.4z M32.3,42.4l-4.1-5.2h-0.9v7.3h1.2v-5.2
			l4.1,5.2h0.9v-7.3h-1.2V42.4z M43.3,43.6c-1.9,0-2.7-1.3-2.7-2.7s0.8-2.7,2.7-2.7c0.7,0,1.4,0.2,1.9,0.8l0.8-0.8
			c-0.7-0.7-1.7-1.1-2.7-1.1c-2.6,0-3.8,1.9-3.8,3.8c0,1.9,1.2,3.8,3.8,3.8c1,0,2-0.3,2.7-1.1l-0.8-0.8
			C44.7,43.3,43.9,43.6,43.3,43.6z M52.9,41.4h4v-1.1h-4v-2h4.2v-1.1h-5.3v7.3h5.4v-1.2H53L52.9,41.4L52.9,41.4z M64.3,37.2h-1.2
			v7.3h5v-1.1h-3.8V37.2z M76.2,37.2l-3.3,7.3h1.2l0.7-1.5h3.9l0.7,1.5h1.2l-3.3-7.3H76.2z M75.3,41.9l1.5-3.5l1.5,3.5H75.3z
			 M90.2,41.9c1.4-0.2,2-1.2,2-2.3c0-1.2-0.9-2.4-2.6-2.4c-1.1,0-2.2,0-3.4,0v7.3h1.2V42h1.5l2.2,2.5h1.4l-0.1-0.2L90.2,41.9z
			 M87.4,40.9v-2.7h2.2c1,0,1.4,0.7,1.4,1.4s-0.4,1.3-1.4,1.3H87.4z M98.3,44.5h1.1v-7.3h-1.1V44.5z M108.3,37.2l-3.3,7.3h1.2
			l0.7-1.5h3.9l0.7,1.5h1.2l-3.3-7.3H108.3z M107.4,41.9l1.5-3.5l1.5,3.5H107.4z M128.5,37.2c-1.1,0-2.2,0-3.4,0v7.3h1.2v-2.3h2.2
			C132,42.2,132,37.2,128.5,37.2z M128.5,41.2h-2.2v-2.9h2.2C130.4,38.3,130.4,41.2,128.5,41.2z M140.9,41.9c1.4-0.2,2-1.2,2-2.3
			c0-1.2-0.9-2.4-2.6-2.4c-1.1,0-2.2,0-3.4,0v7.3h1.2V42h1.5l2.2,2.5h1.4l-0.1-0.2L140.9,41.9z M138,40.9v-2.7h2.2
			c1,0,1.4,0.7,1.4,1.4s-0.4,1.3-1.4,1.3H138z M151.3,37.2l-3.3,7.3h1.2l0.7-1.5h3.9l0.7,1.5h1.2l-3.3-7.3H151.3z M150.4,41.9
			l1.5-3.5l1.5,3.5H150.4z M167.9,42.8l-1.9-5.6h-0.7l-1.9,5.6l-1.8-5.6h-1.3l2.6,7.3h1l1-2.6l0.8-2.5l0.8,2.5l1,2.6h1l2.6-7.3h-1.3
			L167.9,42.8z M181.7,42.4l-4.1-5.2h-0.9v7.3h1.2v-5.2l4.1,5.2h0.9v-7.3h-1.2V42.4L181.7,42.4z M191.7,37.2l-3.3,7.3h1.2l0.7-1.5
			h3.9l0.7,1.5h1.2l-3.3-7.3H191.7z M190.8,41.9l1.5-3.5l1.5,3.5H190.8z M10.8,15.3L21.5,5.1h3V3.3h-9.2v1.8h3.6L5.5,17.8V5.1h3.4
			V3.3H0v1.8h3.6v23.6H0v1.7h9.4v-1.7H5.5v-8.4l4-3.8l9.2,12.3v1.6h6.4v-1.8h-4.3L10.8,15.3z M46.7,3.3h-6.6v1.8h3.6L33.2,28.6h-2.8
			v1.8H39v-1.8h-3.5c0.5-1.1,1-2.2,1.4-3.2c0.5-1.1,0.9-2.1,1.4-3.2h14.8c0.5,1.1,0.9,2.1,1.4,3.2s0.9,2.1,1.4,3.2h-3.6v1.8h8.6
			v-1.8h-2.8L46.7,3.3z M39,20.4c1.1-2.5,2.2-4.9,3.2-7.4c1.1-2.5,2.2-5.1,3.4-7.8c1.2,2.7,2.3,5.3,3.3,7.8s2.1,4.9,3.2,7.4H39z
			 M90.4,16.2c0.7-1.3,1-2.7,1-4.2s-0.3-2.9-1-4.2s-1.6-2.4-2.9-3.2c-1.3-0.9-2.9-1.3-4.9-1.3H67.5v1.8H71v23.5h-3.5v1.8h9.1v-1.8
			H73v-7.9h9.7c1.9,0,3.6-0.4,4.9-1.3C88.7,18.5,89.7,17.4,90.4,16.2z M82.6,18.9h-9.7V5.1h9.7c1.5,0,2.8,0.3,3.8,1s1.8,1.5,2.3,2.6
			c0.5,1,0.7,2.1,0.7,3.3s-0.2,2.3-0.7,3.3s-1.3,1.9-2.3,2.6S84.1,18.9,82.6,18.9z M108.2,28.6h-3.7V5.1h3.6V3.3H99v1.8h3.6v23.5H99
			v1.8h9.2V28.6z M135.8,5.1h3.5v21.6L121.5,3.3h-4.8v1.8h3.5v23.5h-3.6v1.8h9.1v-1.8h-3.5V7.3l17.6,23.1h1.4V5.1h3.5V3.3h-8.9V5.1z
			 M170.9,17.6c-1-0.5-2.1-1-3.4-1.3s-2.6-0.6-3.9-0.8c-1.1-0.2-2.1-0.4-3.1-0.7c-1-0.2-1.8-0.6-2.6-0.9c-0.8-0.4-1.4-0.9-1.8-1.5
			s-0.7-1.4-0.7-2.3c0-1,0.2-1.9,0.7-2.6c0.4-0.7,1-1.3,1.8-1.7c0.7-0.4,1.6-0.8,2.5-1s1.9-0.3,2.9-0.3c1.4,0,2.8,0.2,4.2,0.6
			c1.4,0.3,2.6,0.9,3.5,1.6V11h1.8c0-0.9,0-1.8,0-2.6s0-1.7,0-2.6c-1.3-1.1-2.7-1.9-4.4-2.3c-1.6-0.5-3.4-0.7-5.2-0.8
			c-1.2,0-2.4,0.1-3.6,0.4c-1.2,0.3-2.2,0.7-3.2,1.3c-0.9,0.6-1.7,1.3-2.2,2.3c-0.6,0.9-0.8,2.1-0.8,3.4s0.3,2.4,0.8,3.2
			s1.3,1.5,2.2,2s2,0.9,3.1,1.2c1.2,0.3,2.4,0.6,3.6,0.8c1,0.2,2.1,0.4,3.1,0.7c1.1,0.2,2,0.6,2.9,1s1.6,1,2.1,1.6
			c0.5,0.7,0.8,1.5,0.8,2.6c0,1.2-0.3,2.2-0.9,2.9c-0.6,0.7-1.3,1.3-2.2,1.8c-0.9,0.4-1.8,0.7-2.9,0.9c-1,0.2-1.9,0.2-2.8,0.2
			c-1.5,0-3-0.2-4.4-0.7s-2.7-1.2-3.9-2.1v-4.5h-1.8v1.2c0,0.5,0,1,0,1.5s0,1,0,1.5v1.2c1.4,1.3,3,2.2,4.7,2.8
			c1.8,0.6,3.6,0.9,5.4,0.9c1.2,0,2.5-0.1,3.7-0.4c1.3-0.2,2.4-0.7,3.5-1.3c1-0.6,1.9-1.4,2.5-2.4c0.7-1,1-2.2,1-3.7
			c0-1.4-0.3-2.6-0.9-3.5C172.7,18.8,171.9,18.1,170.9,17.6z M193.7,15.3l10.7-10.2h3V3.3h-9.3v1.8h3.6l-13.4,12.7V5.1h3.4V3.3h-8.9
			v1.8h3.6v23.6h-3.6v1.7h9.4v-1.7h-3.9v-8.4l4-3.8l9.2,12.3v1.6h6.4v-1.8h-4.3L193.7,15.3z M220.4,28.6V5.1h3.6V3.3h-9.1v1.8h3.6
			v23.5h-3.6v1.8h9.2v-1.8H220.4z M132.4,10.4L124.5,0h-2.3l7.9,10.4H132.4z"/>
	</g>
</g>
</svg>
