<?xml version="1.0" encoding="utf-8"?>
<!-- Generator: Adobe Illustrator 22.0.1, SVG Export Plug-In . SVG Version: 6.00 Build 0)  -->
<svg version="1.1" id="Warstwa_1" xmlns="http://www.w3.org/2000/svg" xmlns:xlink="http://www.w3.org/1999/xlink" x="0px" y="0px"
	 viewBox="0 0 299 58" style="enable-background:new 0 0 299 58;" xml:space="preserve">
<style type="text/css">
	.st0{fill:#213379;}
</style>
<g>
	<g>
		<path class="st0" d="M84,43.4L84,43.4h-1.4l-3,3.2v-3.2h-1.2v7.3h1.2v-3.3l3.2,3.3h1.5v-0.1l-3.6-3.7L84,43.4z M92.2,43.4
			l-3.3,7.3h1.2l0.7-1.5h3.9l0.7,1.5h1.2l-3.3-7.3H92.2z M91.3,48.1l1.5-3.5l1.5,3.5H91.3z M107.2,48.6l-4.1-5.2h-0.9v7.3h1.2v-5.2
			l4.1,5.2h0.9v-7.3h-1.2V48.6z M118.2,49.8c-1.9,0-2.7-1.3-2.7-2.7s0.8-2.7,2.7-2.7c0.7,0,1.4,0.2,1.9,0.8l0.8-0.8
			c-0.7-0.7-1.7-1.1-2.7-1.1c-2.6,0-3.8,1.9-3.8,3.8c0,1.9,1.2,3.8,3.8,3.8c1,0,2-0.3,2.7-1.1l-0.8-0.8
			C119.6,49.5,118.8,49.8,118.2,49.8z M127.8,47.6h4v-1.1h-4v-2h4.2v-1.1h-5.3v7.3h5.4v-1.2h-4.2L127.8,47.6L127.8,47.6z
			 M139.2,43.4H138v7.3h5v-1.1h-3.8V43.4z M151.1,43.4l-3.3,7.3h1.2l0.7-1.5h3.9l0.7,1.5h1.2l-3.3-7.3H151.1z M150.2,48.1l1.5-3.5
			l1.5,3.5H150.2z M165.1,48.1c1.4-0.2,2-1.2,2-2.3c0-1.2-0.9-2.4-2.6-2.4c-1.1,0-2.2,0-3.4,0v7.3h1.2v-2.5h1.5l2.2,2.5h1.4
			l-0.1-0.2L165.1,48.1z M162.3,47.1v-2.7h2.2c1,0,1.4,0.7,1.4,1.4s-0.4,1.3-1.4,1.3H162.3z M173.2,50.7h1.1v-7.3h-1.1V50.7z
			 M183.2,43.4l-3.3,7.3h1.2l0.7-1.5h3.9l0.7,1.5h1.2l-3.3-7.3H183.2z M182.3,48.1l1.5-3.5l1.5,3.5H182.3z M203.4,43.4
			c-1.1,0-2.2,0-3.4,0v7.3h1.2v-2.3h2.2C206.9,48.4,206.9,43.4,203.4,43.4z M203.4,47.4h-2.2v-2.9h2.2
			C205.3,44.5,205.3,47.4,203.4,47.4z M215.8,48.1c1.4-0.2,2-1.2,2-2.3c0-1.2-0.9-2.4-2.6-2.4c-1.1,0-2.2,0-3.4,0v7.3h1.2v-2.5h1.5
			l2.2,2.5h1.4l-0.1-0.2L215.8,48.1z M212.9,47.1v-2.7h2.2c1,0,1.4,0.7,1.4,1.4s-0.4,1.3-1.4,1.3H212.9z M226.2,43.4l-3.3,7.3h1.2
			l0.7-1.5h3.9l0.7,1.5h1.2l-3.3-7.3H226.2z M225.3,48.1l1.5-3.5l1.5,3.5H225.3z M242.8,49l-1.9-5.6h-0.7l-1.9,5.6l-1.8-5.6h-1.3
			l2.6,7.3h1l1-2.6l0.8-2.5l0.8,2.5l1,2.6h1l2.6-7.3h-1.3L242.8,49z M256.6,48.6l-4.1-5.2h-0.9v7.3h1.2v-5.2l4.1,5.2h0.9v-7.3h-1.2
			L256.6,48.6L256.6,48.6z M266.6,43.4l-3.3,7.3h1.2l0.7-1.5h3.9l0.7,1.5h1.2l-3.3-7.3H266.6z M265.7,48.1l1.5-3.5l1.5,3.5H265.7z
			 M85.7,21.5l10.7-10.2h3V9.5h-9.2v1.8h3.6L80.4,24V11.3h3.4V9.5h-8.9v1.8h3.6v23.6h-3.6v1.7h9.4v-1.7h-3.9v-8.4l4-3.8L93.6,35v1.6
			h6.4v-1.8h-4.3L85.7,21.5z M121.6,9.5H115v1.8h3.6l-10.5,23.5h-2.8v1.8h8.6v-1.8h-3.5c0.5-1.1,1-2.2,1.4-3.2
			c0.5-1.1,0.9-2.1,1.4-3.2H128c0.5,1.1,0.9,2.1,1.4,3.2c0.5,1.1,0.9,2.1,1.4,3.2h-3.6v1.8h8.6v-1.8H133L121.6,9.5z M113.9,26.6
			c1.1-2.5,2.2-4.9,3.2-7.4c1.1-2.5,2.2-5.1,3.4-7.8c1.2,2.7,2.3,5.3,3.3,7.8s2.1,4.9,3.2,7.4H113.9z M165.3,22.4
			c0.7-1.3,1-2.7,1-4.2c0-1.5-0.3-2.9-1-4.2s-1.6-2.4-2.9-3.2c-1.3-0.9-2.9-1.3-4.9-1.3h-15.1v1.8h3.5v23.5h-3.5v1.8h9.1v-1.8h-3.6
			v-7.9h9.7c1.9,0,3.6-0.4,4.9-1.3C163.6,24.7,164.6,23.6,165.3,22.4z M157.5,25.1h-9.7V11.3h9.7c1.5,0,2.8,0.3,3.8,1
			s1.8,1.5,2.3,2.6c0.5,1,0.7,2.1,0.7,3.3c0,1.2-0.2,2.3-0.7,3.3s-1.3,1.9-2.3,2.6S159,25.1,157.5,25.1z M183.1,34.8h-3.7V11.3h3.6
			V9.5h-9.1v1.8h3.6v23.5h-3.6v1.8h9.2V34.8z M210.7,11.3h3.5v21.6L196.4,9.5h-4.8v1.8h3.5v23.5h-3.6v1.8h9.1v-1.8h-3.5V13.5
			l17.6,23.1h1.4V11.3h3.5V9.5h-8.9V11.3z M245.8,23.8c-1-0.5-2.1-1-3.4-1.3c-1.3-0.3-2.6-0.6-3.9-0.8c-1.1-0.2-2.1-0.4-3.1-0.7
			c-1-0.2-1.8-0.6-2.6-0.9c-0.8-0.4-1.4-0.9-1.8-1.5c-0.4-0.6-0.7-1.4-0.7-2.3c0-1,0.2-1.9,0.7-2.6c0.4-0.7,1-1.3,1.8-1.7
			c0.7-0.4,1.6-0.8,2.5-1s1.9-0.3,2.9-0.3c1.4,0,2.8,0.2,4.2,0.6c1.4,0.3,2.6,0.9,3.5,1.6v4.3h1.8c0-0.9,0-1.8,0-2.6s0-1.7,0-2.6
			c-1.3-1.1-2.7-1.9-4.4-2.3c-1.6-0.5-3.4-0.7-5.2-0.8c-1.2,0-2.4,0.1-3.6,0.4c-1.2,0.3-2.2,0.7-3.2,1.3c-0.9,0.6-1.7,1.3-2.2,2.3
			c-0.6,0.9-0.8,2.1-0.8,3.4s0.3,2.4,0.8,3.2c0.5,0.8,1.3,1.5,2.2,2s2,0.9,3.1,1.2c1.2,0.3,2.4,0.6,3.6,0.8c1,0.2,2.1,0.4,3.1,0.7
			c1.1,0.2,2,0.6,2.9,1s1.6,1,2.1,1.6c0.5,0.7,0.8,1.5,0.8,2.6c0,1.2-0.3,2.2-0.9,2.9c-0.6,0.7-1.3,1.3-2.2,1.8
			c-0.9,0.4-1.8,0.7-2.9,0.9c-1,0.2-1.9,0.2-2.8,0.2c-1.5,0-3-0.2-4.4-0.7s-2.7-1.2-3.9-2.1v-4.5H228v1.2c0,0.5,0,1,0,1.5s0,1,0,1.5
			v1.2c1.4,1.3,3,2.2,4.7,2.8c1.8,0.6,3.6,0.9,5.4,0.9c1.2,0,2.5-0.1,3.7-0.4c1.3-0.2,2.4-0.7,3.5-1.3c1-0.6,1.9-1.4,2.5-2.4
			c0.7-1,1-2.2,1-3.7c0-1.4-0.3-2.6-0.9-3.5C247.6,25,246.8,24.3,245.8,23.8z M268.6,21.5l10.7-10.2h3V9.5H273v1.8h3.6L263.2,24
			V11.3h3.4V9.5h-8.9v1.8h3.6v23.6h-3.6v1.7h9.4v-1.7h-3.9v-8.4l4-3.8l9.2,12.3v1.6h6.4v-1.8h-4.3L268.6,21.5z M295.3,34.8V11.3h3.6
			V9.5h-9.1v1.8h3.6v23.5h-3.6v1.8h9.2v-1.8H295.3z M207.3,16.6l-7.9-10.4h-2.3l7.9,10.4H207.3z M8.4,8.5c-11.2,11.3-11.2,29.7,0,41
			c5.6,5.7,13,8.5,20.3,8.5c7.4,0,14.7-2.8,20.3-8.5c11.2-11.3,11.2-29.7,0-41S19.6-2.8,8.4,8.5z M8.5,46.7
			c-8.7-10.1-8.7-25.3,0-35.5V46.7z M10.4,48.8V12.5L27.7,30v19.1h1.9V32l17,17.2C36.4,58.5,20.5,58.4,10.4,48.8z M47,46.8L30,29.7
			l17-17.1V46.8z M29.7,27.3V9.5h-1.9v17.8L10.1,9.5c5.2-5,11.9-7.6,18.6-7.6s13.4,2.5,18.6,7.6L29.7,27.3z M48.9,46.7V11.3
			C57.7,21.4,57.7,36.6,48.9,46.7z"/>
	</g>
</g>
</svg>
