<svg id="Warstwa_1" xmlns="http://www.w3.org/2000/svg" viewBox="0 0 224.1 44.7"><style>.st0{fill:#213379}</style><path class="st0" d="M9.1 37.2H7.7l-3 3.2v-3.2H3.5v7.3h1.2v-3.3l3.2 3.3h1.5v-.1l-3.6-3.7 3.3-3.5zm8.2 0L14 44.5h1.2l.7-1.5h3.9l.7 1.5h1.2l-3.3-7.3h-1.1zm-.9 4.7l1.5-3.5 1.5 3.5h-3zm15.9.5l-4.1-5.2h-.9v7.3h1.2v-5.2l4.1 5.2h.9v-7.3h-1.2v5.2zm11 1.2c-1.9 0-2.7-1.3-2.7-2.7s.8-2.7 2.7-2.7c.7 0 1.4.2 1.9.8l.8-.8c-.7-.7-1.7-1.1-2.7-1.1-2.6 0-3.8 1.9-3.8 3.8s1.2 3.8 3.8 3.8c1 0 2-.3 2.7-1.1l-.8-.8c-.5.5-1.3.8-1.9.8zm9.6-2.2h4v-1.1h-4v-2h4.2v-1.1h-5.3v7.3h5.4v-1.2H53l-.1-1.9zm11.4-4.2h-1.2v7.3h5v-1.1h-3.8v-6.2zm11.9 0l-3.3 7.3h1.2l.7-1.5h3.9l.7 1.5h1.2l-3.3-7.3h-1.1zm-.9 4.7l1.5-3.5 1.5 3.5h-3zm14.9 0c1.4-.2 2-1.2 2-2.3 0-1.2-.9-2.4-2.6-2.4h-3.4v7.3h1.2V42h1.5l2.2 2.5h1.4l-.1-.2-2.2-2.4zm-2.8-1v-2.7h2.2c1 0 1.4.7 1.4 1.4s-.4 1.3-1.4 1.3h-2.2zm10.9 3.6h1.1v-7.3h-1.1v7.3zm10-7.3l-3.3 7.3h1.2l.7-1.5h3.9l.7 1.5h1.2l-3.3-7.3h-1.1zm-.9 4.7l1.5-3.5 1.5 3.5h-3zm21.1-4.7h-3.4v7.3h1.2v-2.3h2.2c3.5 0 3.5-5 0-5zm0 4h-2.2v-2.9h2.2c1.9 0 1.9 2.9 0 2.9zm12.4.7c1.4-.2 2-1.2 2-2.3 0-1.2-.9-2.4-2.6-2.4h-3.4v7.3h1.2V42h1.5l2.2 2.5h1.4l-.1-.2-2.2-2.4zm-2.9-1v-2.7h2.2c1 0 1.4.7 1.4 1.4s-.4 1.3-1.4 1.3H138zm13.3-3.7l-3.3 7.3h1.2l.7-1.5h3.9l.7 1.5h1.2l-3.3-7.3h-1.1zm-.9 4.7l1.5-3.5 1.5 3.5h-3zm17.5.9l-1.9-5.6h-.7l-1.9 5.6-1.8-5.6h-1.3l2.6 7.3h1l1-2.6.8-2.5.8 2.5 1 2.6h1l2.6-7.3h-1.3l-1.9 5.6zm13.8-.4l-4.1-5.2h-.9v7.3h1.2v-5.2l4.1 5.2h.9v-7.3h-1.2v5.2zm10-5.2l-3.3 7.3h1.2l.7-1.5h3.9l.7 1.5h1.2l-3.3-7.3h-1.1zm-.9 4.7l1.5-3.5 1.5 3.5h-3zm-180-26.6L21.5 5.1h3V3.3h-9.2v1.8h3.6L5.5 17.8V5.1h3.4V3.3H0v1.8h3.6v23.6H0v1.7h9.4v-1.7H5.5v-8.4l4-3.8 9.2 12.3v1.6h6.4v-1.8h-4.3l-10-13.3zm35.9-12h-6.6v1.8h3.6L33.2 28.6h-2.8v1.8H39v-1.8h-3.5c.5-1.1 1-2.2 1.4-3.2.5-1.1.9-2.1 1.4-3.2h14.8c.5 1.1.9 2.1 1.4 3.2s.9 2.1 1.4 3.2h-3.6v1.8h8.6v-1.8h-2.8L46.7 3.3zM39 20.4c1.1-2.5 2.2-4.9 3.2-7.4 1.1-2.5 2.2-5.1 3.4-7.8 1.2 2.7 2.3 5.3 3.3 7.8s2.1 4.9 3.2 7.4H39zm51.4-4.2c.7-1.3 1-2.7 1-4.2s-.3-2.9-1-4.2-1.6-2.4-2.9-3.2c-1.3-.9-2.9-1.3-4.9-1.3H67.5v1.8H71v23.5h-3.5v1.8h9.1v-1.8H73v-7.9h9.7c1.9 0 3.6-.4 4.9-1.3 1.1-.9 2.1-2 2.8-3.2zm-7.8 2.7h-9.7V5.1h9.7c1.5 0 2.8.3 3.8 1s1.8 1.5 2.3 2.6c.5 1 .7 2.1.7 3.3s-.2 2.3-.7 3.3-1.3 1.9-2.3 2.6-2.3 1-3.8 1zm25.6 9.7h-3.7V5.1h3.6V3.3H99v1.8h3.6v23.5H99v1.8h9.2v-1.8zm27.6-23.5h3.5v21.6L121.5 3.3h-4.8v1.8h3.5v23.5h-3.6v1.8h9.1v-1.8h-3.5V7.3l17.6 23.1h1.4V5.1h3.5V3.3h-8.9v1.8zm35.1 12.5c-1-.5-2.1-1-3.4-1.3s-2.6-.6-3.9-.8c-1.1-.2-2.1-.4-3.1-.7-1-.2-1.8-.6-2.6-.9-.8-.4-1.4-.9-1.8-1.5s-.7-1.4-.7-2.3c0-1 .2-1.9.7-2.6.4-.7 1-1.3 1.8-1.7.7-.4 1.6-.8 2.5-1s1.9-.3 2.9-.3c1.4 0 2.8.2 4.2.6 1.4.3 2.6.9 3.5 1.6V11h1.8V5.8c-1.3-1.1-2.7-1.9-4.4-2.3-1.6-.5-3.4-.7-5.2-.8-1.2 0-2.4.1-3.6.4-1.2.3-2.2.7-3.2 1.3-.9.6-1.7 1.3-2.2 2.3-.6.9-.8 2.1-.8 3.4s.3 2.4.8 3.2 1.3 1.5 2.2 2 2 .9 3.1 1.2c1.2.3 2.4.6 3.6.8 1 .2 2.1.4 3.1.7 1.1.2 2 .6 2.9 1s1.6 1 2.1 1.6c.5.7.8 1.5.8 2.6 0 1.2-.3 2.2-.9 2.9-.6.7-1.3 1.3-2.2 1.8-.9.4-1.8.7-2.9.9-1 .2-1.9.2-2.8.2-1.5 0-3-.2-4.4-.7s-2.7-1.2-3.9-2.1v-4.5h-1.8v5.4c1.4 1.3 3 2.2 4.7 2.8 1.8.6 3.6.9 5.4.9 1.2 0 2.5-.1 3.7-.4 1.3-.2 2.4-.7 3.5-1.3 1-.6 1.9-1.4 2.5-2.4.7-1 1-2.2 1-3.7 0-1.4-.3-2.6-.9-3.5-.3-.7-1.1-1.4-2.1-1.9zm22.8-2.3l10.7-10.2h3V3.3h-9.3v1.8h3.6l-13.4 12.7V5.1h3.4V3.3h-8.9v1.8h3.6v23.6h-3.6v1.7h9.4v-1.7h-3.9v-8.4l4-3.8 9.2 12.3v1.6h6.4v-1.8h-4.3l-9.9-13.3zm26.7 13.3V5.1h3.6V3.3h-9.1v1.8h3.6v23.5h-3.6v1.8h9.2v-1.8h-3.7zm-88-18.2L124.5 0h-2.3l7.9 10.4h2.3z"/></svg>